<svg width="19" height="34" viewBox="0 0 19 34" fill="none" xmlns="http://www.w3.org/2000/svg">
<path d="M5.94817 11.5055V24.2957C5.96296 25.231 6.34522 26.123 7.01246 26.7791C7.67971 27.4353 8.57843 27.8031 9.51468 27.8031C10.4509 27.8031 11.3497 27.4353 12.0169 26.7791C12.6841 26.123 13.0664 25.231 13.0812 24.2957L13.0928 7.53107C13.1025 6.73167 12.9533 5.9383 12.6538 5.19695C12.3543 4.4556 11.9105 3.78101 11.3481 3.21229C10.7857 2.64357 10.116 2.19203 9.37761 1.88386C8.63926 1.57568 7.84702 1.41699 7.04683 1.41699C6.24663 1.41699 5.4544 1.57568 4.71604 1.88386C3.97769 2.19203 3.30791 2.64357 2.74553 3.21229C2.18315 3.78101 1.73936 4.4556 1.43988 5.19695C1.14039 5.9383 0.991182 6.73167 1.00089 7.53107V24.4086C0.984588 25.5341 1.19238 26.6515 1.61218 27.696C2.03199 28.7405 2.65543 29.6912 3.44626 30.4928C4.23709 31.2944 5.17954 31.9309 6.2188 32.3654C7.25807 32.7999 8.37341 33.0237 9.5 33.0237C10.6266 33.0237 11.7419 32.7999 12.7812 32.3654C13.8205 31.9309 14.7629 31.2944 15.5537 30.4928C16.3446 29.6912 16.968 28.7405 17.3878 27.696C17.8076 26.6515 18.0154 25.5341 17.9991 24.4086V8.63715" stroke="black" stroke-width="1.40565" stroke-miterlimit="10" stroke-linecap="round"/>
</svg>
