<svg width="20" height="14" viewBox="0 0 20 14" fill="none" xmlns="http://www.w3.org/2000/svg">
<path d="M19.6488 6.46494C19.6204 6.39998 18.9262 4.86332 17.3758 3.31584C15.9373 1.88163 13.4657 0.170898 9.84601 0.170898C6.22631 0.170898 3.75476 1.88163 2.31622 3.31584C0.765874 4.86332 0.0716382 6.39748 0.043268 6.46494C0.0147412 6.52891 0 6.59814 0 6.66816C0 6.73818 0.0147412 6.80742 0.043268 6.87138C0.0716382 6.93552 0.765874 8.47217 2.31622 10.0197C3.75476 11.4539 6.22631 13.1638 9.84601 13.1638C13.4657 13.1638 15.9373 11.4539 17.3758 10.0197C18.9262 8.47217 19.6204 6.93801 19.6488 6.87138C19.6773 6.80742 19.692 6.73818 19.692 6.66816C19.692 6.59814 19.6773 6.52891 19.6488 6.46494ZM9.84601 12.1643C7.22761 12.1643 4.9413 11.2132 3.04968 9.33836C2.25671 8.55175 1.58569 7.65151 1.05875 6.66733C1.58554 5.68331 2.25658 4.78332 3.04968 3.99713C4.9413 2.12149 7.22761 1.17035 9.84601 1.17035C12.4644 1.17035 14.7507 2.12149 16.6423 3.99713C17.4354 4.78332 18.1065 5.68331 18.6333 6.66733C18.1017 7.68427 15.4366 12.1643 9.84601 12.1643ZM9.84601 2.8361C9.08686 2.8361 8.34476 3.0608 7.71356 3.48178C7.08235 3.90276 6.59038 4.50112 6.29986 5.20118C6.00935 5.90125 5.93334 6.67158 6.08144 7.41477C6.22955 8.15795 6.59511 8.84061 7.13191 9.37642C7.66871 9.91223 8.35263 10.2771 9.09719 10.4249C9.84176 10.5728 10.6135 10.4969 11.3149 10.2069C12.0162 9.91695 12.6157 9.42589 13.0375 8.79585C13.4592 8.1658 13.6843 7.42508 13.6843 6.66733C13.683 5.65163 13.2782 4.67791 12.5587 3.9597C11.8391 3.24149 10.8636 2.83742 9.84601 2.8361ZM9.84601 9.49911C9.2849 9.49911 8.73639 9.33303 8.26985 9.02187C7.8033 8.71071 7.43967 8.26844 7.22495 7.751C7.01022 7.23356 6.95404 6.66419 7.0635 6.11488C7.17297 5.56557 7.44317 5.06099 7.83994 4.66496C8.2367 4.26893 8.74221 3.99923 9.29254 3.88996C9.84287 3.7807 10.4133 3.83678 10.9317 4.05111C11.4501 4.26544 11.8932 4.6284 12.2049 5.09408C12.5166 5.55976 12.683 6.10726 12.683 6.66733C12.683 7.41836 12.3841 8.13864 11.8521 8.6697C11.32 9.20076 10.5984 9.49911 9.84601 9.49911Z" fill="#585858"/>
</svg>
